<svg width="237" height="99" viewBox="0 0 237 99" fill="none" xmlns="http://www.w3.org/2000/svg">
<path d="M28.3135 53.9794C26.9066 54.5265 25.8124 54.8001 25.0308 54.8001C22.686 54.8001 21.3768 54.4679 21.1032 53.8036C17.1952 43.76 14.616 37.2922 13.3654 34.4003C13.2481 35.4555 12.9355 37.898 12.4275 41.7278C11.3723 49.2312 10.8447 55.4645 10.8447 60.4276C10.8447 61.6391 10.9229 63.2609 11.0792 65.2931C8.3436 65.2931 6.48729 64.9805 5.51029 64.3552C4.57237 63.6908 4.10341 62.7724 4.10341 61.6C4.10341 61.2092 4.74823 55.8943 6.03787 45.6554C7.3666 35.4164 8.03096 28.2843 8.03096 24.259V23.9659C6.89763 22.1291 5.70569 20.6246 4.45513 19.4522C5.90109 18.4361 7.64016 17.928 9.67232 17.928C12.2516 17.928 14.2447 19.1395 15.6516 21.5625C17.0585 23.9464 19.8136 30.5314 23.917 41.3175L26.6135 48.2346C26.848 47.8438 27.1997 47.3163 27.6687 46.6519C37.2042 32.544 42.1088 22.9694 42.3824 17.928C42.3824 17.9671 42.8513 18.0257 43.7892 18.1039C44.7272 18.143 45.7237 18.3384 46.7789 18.6901C47.8731 19.0027 48.6547 19.5108 49.1237 20.2142C49.6317 20.8786 49.9443 21.5429 50.0616 22.2073C50.1788 22.8326 50.2375 23.9268 50.2375 25.49C50.2375 27.0142 49.5926 32.1923 48.303 41.0244C47.0133 49.8565 46.3685 56.0507 46.3685 59.6069C46.3685 63.1242 46.6421 65.5276 47.1892 66.8172C43.8674 65.9575 41.6007 64.8241 40.3893 63.4173C39.1778 61.9713 38.572 59.9782 38.572 57.438C38.572 55.953 38.9628 52.299 39.7444 46.476C40.5651 40.6531 41.1318 36.0026 41.4444 32.5244C39.8812 35.221 37.6537 38.914 34.7617 43.6037C31.9089 48.2933 30.1894 51.0875 29.6032 51.9863C29.017 52.8461 28.5871 53.5105 28.3135 53.9794ZM65.23 53.9208C65.23 55.7576 65.5622 57.2621 66.2265 58.4345C66.93 59.5679 67.907 60.1345 69.1576 60.1345C70.9943 60.1345 72.7334 59.0598 74.3747 56.9104C76.0552 54.761 77.3839 52.0059 78.3609 48.645C79.377 45.2841 79.885 42.0991 79.885 39.0899C79.885 36.0417 79.7678 33.5796 79.5333 31.7038C80.7057 31.6256 81.5264 31.5865 81.9954 31.5865C83.9884 31.5865 85.493 31.9578 86.5091 32.7003C87.5252 33.4428 88.0332 34.7716 88.0332 36.6865C88.0332 37.429 87.5643 40.4577 86.6263 45.7726C85.6884 51.0484 85.2195 55.2886 85.2195 58.4932C85.2195 61.6587 85.8252 64.4724 87.0367 66.9345C84.1057 66.4264 81.9563 65.3517 80.5885 63.7104C79.2207 62.0299 78.5368 59.6265 78.5368 56.5001C78.5368 55.953 78.6149 54.8978 78.7713 53.3346C77.7161 57.0472 75.8402 60.0368 73.1437 62.3035C70.4472 64.5701 67.7897 65.7034 65.1714 65.7034C62.5921 65.7034 60.5013 64.746 58.899 62.8311C57.3358 60.8771 56.5542 58.1219 56.5542 54.5656C56.5542 51.0093 57.1795 47.5703 58.4301 44.2485C59.7197 40.8876 61.6346 38.0543 64.1748 35.7486C66.715 33.4038 69.5484 32.2313 72.6748 32.2313C74.4724 32.2313 76.3092 32.6612 78.1851 33.521C74.238 34.9279 71.092 37.7026 68.7472 41.8451C66.4024 45.9485 65.23 49.9737 65.23 53.9208ZM108.185 34.6348C107.091 34.6348 106.114 35.006 105.254 35.7486C104.394 36.452 103.964 37.4681 103.964 38.7968C103.964 40.1255 104.414 41.3761 105.312 42.5485C106.25 43.7209 107.384 44.7565 108.712 45.6554C110.041 46.5151 111.37 47.414 112.699 48.3519C114.066 49.2507 115.258 50.384 116.274 51.7519C117.29 53.0806 117.857 54.5656 117.974 56.207C117.974 59.0207 116.763 61.3851 114.34 63.3C111.917 65.2149 108.908 66.1724 105.312 66.1724C101.717 66.1724 98.8838 65.4494 96.8125 64.0035C94.7803 62.5575 93.7643 60.8966 93.7643 59.0207C93.7643 57.1449 94.3309 55.6403 95.4642 54.507C96.6366 53.3346 98.0826 52.7484 99.8021 52.7484C100.701 52.7484 101.541 52.9047 102.323 53.2174C101.072 54.5461 100.447 55.953 100.447 57.438C100.447 58.923 100.857 60.115 101.678 61.0138C102.499 61.9127 103.612 62.3621 105.019 62.3621C106.426 62.3621 107.599 62.0104 108.537 61.3069C109.514 60.5644 110.002 59.6265 110.002 58.4932C110.002 57.3208 109.67 56.2851 109.005 55.3863C108.341 54.4875 107.501 53.7059 106.485 53.0415C105.508 52.3381 104.433 51.5565 103.261 50.6967C102.088 49.8369 100.994 48.9772 99.978 48.1174C99.001 47.2186 98.1803 46.1048 97.516 44.7761C96.8516 43.4083 96.5194 41.9232 96.5194 40.3209C96.5194 37.5462 97.6527 35.2796 99.9194 33.521C102.225 31.7233 105.078 30.8245 108.478 30.8245C111.917 30.8245 114.418 31.4888 115.981 32.8176C117.584 34.1463 118.385 35.7095 118.385 37.5072C118.385 39.2658 117.818 40.7703 116.685 42.0209C115.59 43.2715 114.164 43.8968 112.405 43.8968C111.546 43.8968 110.569 43.7209 109.474 43.3692C110.334 42.6267 110.999 41.7864 111.468 40.8485C111.937 39.8715 112.171 38.914 112.171 37.9761C112.171 37.0382 111.78 36.2566 110.999 35.6313C110.217 34.967 109.279 34.6348 108.185 34.6348ZM129.637 30.8245C131.786 30.8245 133.291 31.1762 134.151 31.8796C135.05 32.5831 135.499 33.99 135.499 36.1003C135.499 38.1715 135.44 40.4772 135.323 43.0175C135.206 45.5186 134.971 48.4496 134.62 51.8105C134.268 55.1323 133.799 58.2587 133.213 61.1897C132.666 64.1207 131.884 67.0517 130.868 69.9827C129.852 72.9137 128.68 75.4148 127.351 77.4861C126.061 79.5964 124.42 81.2964 122.427 82.586C120.434 83.9148 118.304 84.5791 116.037 84.5791C113.731 84.5791 111.836 83.9148 110.351 82.586C108.827 81.2964 108.065 79.6941 108.065 77.7792C108.065 75.9033 108.71 74.262 109.999 72.8551C111.289 71.4482 112.989 70.7448 115.099 70.7448C115.92 70.7448 116.721 70.8816 117.503 71.1551C116.877 71.6241 116.272 72.4448 115.685 73.6172C115.06 74.7896 114.748 75.8838 114.748 76.8999C114.748 77.955 114.982 78.7757 115.451 79.3619C115.881 79.9481 116.467 80.2412 117.21 80.2412C119.085 80.2412 120.727 79.0102 122.134 76.5482C123.541 74.0861 124.596 70.8229 125.299 66.7586C126.667 58.8644 127.351 50.2277 127.351 40.8485C127.351 36.7842 127.273 33.4819 127.116 30.9417C127.976 30.8635 128.816 30.8245 129.637 30.8245ZM135.851 25.6073C134.757 25.7636 133.799 25.8418 132.978 25.8418C128.953 25.8418 126.941 24.4349 126.941 21.6211C126.941 20.605 127.234 19.2177 127.82 17.4591C128.914 17.3028 129.872 17.2246 130.692 17.2246C134.717 17.2246 136.73 18.6315 136.73 21.4452C136.73 22.4613 136.437 23.8487 135.851 25.6073ZM155.433 35.8658C155.433 36.452 154.945 39.5393 153.968 45.1278C153.03 50.6771 152.541 55.2691 152.502 58.9035C152.502 62.4989 152.737 64.8241 153.206 65.8793C150.157 65.0977 148.106 63.9253 147.05 62.3621C145.995 60.7598 145.468 58.4345 145.468 55.3863C145.468 53.7449 145.78 50.7748 146.406 46.476C147.031 42.1772 147.344 38.8359 147.344 36.452C147.344 34.0681 147.226 32.2313 146.992 30.9417C147.852 30.8635 148.653 30.8245 149.395 30.8245C151.662 30.8245 153.225 31.2153 154.085 31.9969C154.984 32.7394 155.433 34.029 155.433 35.8658ZM156.312 25.6659C155.218 25.8222 154.261 25.9004 153.44 25.9004C149.415 25.9004 147.402 24.4935 147.402 21.6797C147.402 20.6636 147.695 19.2763 148.281 17.5177C149.376 17.3614 150.333 17.2832 151.154 17.2832C155.179 17.2832 157.192 18.6901 157.192 21.5039C157.192 22.5199 156.899 23.9073 156.312 25.6659ZM169.988 53.1587C169.988 57.8093 171.395 60.1345 174.208 60.1345C175.694 60.1345 177.139 59.3334 178.546 57.7311C179.953 56.1288 181.087 53.9794 181.946 51.2829C182.845 48.5864 183.607 45.714 184.233 42.6657C184.897 39.5784 185.385 36.3152 185.698 32.8762C186.245 26.2326 186.519 21.0544 186.519 17.3418C186.519 13.5901 186.362 10.7764 186.05 8.90054C188.864 9.52582 190.837 10.8545 191.97 12.8867C193.104 14.9189 193.67 17.4786 193.67 20.5659C193.67 23.6533 193.006 29.398 191.677 37.8003C190.388 46.2025 189.743 52.3381 189.743 56.207C189.743 60.0759 189.919 63.3586 190.27 66.0552C187.496 65.3126 185.581 63.9839 184.526 62.069C183.51 60.115 183.001 57.6725 183.001 54.7415C181.79 58.1024 179.973 60.7598 177.55 62.7138C175.127 64.6678 172.626 65.6448 170.046 65.6448C167.467 65.6448 165.357 64.6678 163.715 62.7138C162.113 60.7207 161.312 57.8093 161.312 53.9794C161.312 47.922 162.973 42.7244 166.295 38.3865C169.617 34.0095 173.544 31.821 178.077 31.821C179.367 31.821 181.399 32.1336 184.174 32.7589C181.751 33.3842 179.582 34.4785 177.667 36.0417C175.791 37.5658 174.326 39.3244 173.271 41.3175C171.082 45.2646 169.988 49.2116 169.988 53.1587ZM211.972 34.6348C210.878 34.6348 209.901 35.006 209.041 35.7486C208.181 36.452 207.752 37.4681 207.752 38.7968C207.752 40.1255 208.201 41.3761 209.1 42.5485C210.038 43.7209 211.171 44.7565 212.5 45.6554C213.829 46.5151 215.157 47.414 216.486 48.3519C217.854 49.2507 219.046 50.384 220.062 51.7519C221.078 53.0806 221.645 54.5656 221.762 56.207C221.762 59.0207 220.55 61.3851 218.127 63.3C215.704 65.2149 212.695 66.1724 209.1 66.1724C205.504 66.1724 202.671 65.4494 200.6 64.0035C198.568 62.5575 197.552 60.8966 197.552 59.0207C197.552 57.1449 198.118 55.6403 199.252 54.507C200.424 53.3346 201.87 52.7484 203.59 52.7484C204.488 52.7484 205.329 52.9047 206.11 53.2174C204.86 54.5461 204.234 55.953 204.234 57.438C204.234 58.923 204.645 60.115 205.465 61.0138C206.286 61.9127 207.4 62.3621 208.807 62.3621C210.214 62.3621 211.386 62.0104 212.324 61.3069C213.301 60.5644 213.789 59.6265 213.789 58.4932C213.789 57.3208 213.457 56.2851 212.793 55.3863C212.129 54.4875 211.288 53.7059 210.272 53.0415C209.295 52.3381 208.221 51.5565 207.048 50.6967C205.876 49.8369 204.781 48.9772 203.765 48.1174C202.788 47.2186 201.968 46.1048 201.303 44.7761C200.639 43.4083 200.307 41.9232 200.307 40.3209C200.307 37.5462 201.44 35.2796 203.707 33.521C206.012 31.7233 208.865 30.8245 212.265 30.8245C215.704 30.8245 218.205 31.4888 219.769 32.8176C221.371 34.1463 222.172 35.7095 222.172 37.5072C222.172 39.2658 221.605 40.7703 220.472 42.0209C219.378 43.2715 217.951 43.8968 216.193 43.8968C215.333 43.8968 214.356 43.7209 213.262 43.3692C214.122 42.6267 214.786 41.7864 215.255 40.8485C215.724 39.8715 215.958 38.914 215.958 37.9761C215.958 37.0382 215.568 36.2566 214.786 35.6313C214.004 34.967 213.066 34.6348 211.972 34.6348Z" fill="#95A5BE"/>
<path d="M154.048 70.2031L151.833 83H149.179L147.175 74.7031L145.725 83H143.009L145.215 70.2031H147.887L149.891 78.5L151.332 70.2031H154.048ZM163.308 80.7412L162.912 83H157.489L157.885 80.7412H163.308ZM160.609 70.2031L158.395 83H155.679L157.885 70.2031H160.609ZM163.527 75.3359L163.149 77.5156H158.438L158.825 75.3359H163.527ZM165.136 70.2031L164.74 72.4707H159.309L159.704 70.2031H165.136ZM172.585 72.8223L168.366 83H165.396L171.469 70.2031H173.341L172.585 72.8223ZM172.805 83L172.084 72.5762L172.189 70.2031H173.974L175.635 83H172.805ZM173.71 78.2275L173.306 80.4863H167.795L168.199 78.2275H173.71ZM180.931 70.2031L184.912 70.2119C185.674 70.2354 186.321 70.3994 186.854 70.7041C187.394 71.0088 187.795 71.4424 188.059 72.0049C188.328 72.5615 188.431 73.2266 188.366 74C188.319 74.6387 188.19 75.2012 187.979 75.6875C187.769 76.168 187.47 76.5869 187.083 76.9443C186.702 77.3018 186.225 77.6152 185.65 77.8848L184.701 78.3945H181.282L181.669 76.1357L183.84 76.1533C184.215 76.1475 184.525 76.0566 184.771 75.8809C185.023 75.7051 185.217 75.4736 185.352 75.1865C185.492 74.8994 185.583 74.583 185.624 74.2373C185.659 73.9971 185.674 73.7422 185.668 73.4727C185.668 73.2031 185.604 72.9746 185.475 72.7871C185.352 72.5996 185.129 72.4971 184.807 72.4795L183.269 72.4707L181.44 83H178.725L180.931 70.2031ZM184.35 83L183.093 77.3135L185.844 77.3047L187.259 82.8594L187.25 83H184.35ZM200.153 70.2031H202.324L202.913 79.2559L206.631 70.2031H208.951L203.247 83H201.419L200.153 70.2031ZM198.817 70.2031H201.103L199.863 79.8887L199.318 83H196.603L198.817 70.2031ZM207.914 70.2031H210.217L207.993 83H205.269L205.857 79.6514L207.914 70.2031ZM219.485 80.7412L219.09 83H213.667L214.062 80.7412H219.485ZM216.787 70.2031L214.572 83H211.856L214.062 70.2031H216.787ZM219.705 75.3359L219.327 77.5156H214.616L215.003 75.3359H219.705ZM221.313 70.2031L220.918 72.4707H215.486L215.882 70.2031H221.313Z" fill="#95A5BE"/>
</svg>
