<svg width="190" height="176" viewBox="0 0 190 176" fill="none" xmlns="http://www.w3.org/2000/svg">
<path d="M142.007 118.634C137.884 117.802 134.938 117.309 134.938 117.309L142.007 120.409L151.769 124.693L153.645 125.021C150.624 125.241 147.169 125.887 143.322 127.256C142.898 127.41 142.463 127.574 142.007 127.76C141.509 127.957 141 128.187 140.471 128.418C138.382 129.349 136.072 130.554 133.613 131.945C127.296 135.517 120.088 140.293 113.612 144.818C107.02 149.419 101.19 153.757 97.8725 156.266L97.2259 146.921L95.9435 128.418L95.8057 126.435C96.2826 126.281 96.961 126.051 97.7983 125.788C99.4624 125.251 101.752 124.528 104.402 123.729C107.189 122.885 110.369 121.954 113.623 121.067C121.191 119.007 129.161 117.188 133.623 117.232C134.1 117.232 134.546 117.254 134.938 117.309C134.938 117.309 134.535 117.057 133.623 116.772C131.631 116.148 127.2 115.337 119.315 116.586C117.428 116.882 115.509 117.287 113.612 117.758C110.358 118.558 107.179 119.555 104.391 120.519C100.236 121.954 96.961 123.323 95.6149 123.904V123.882H94.9471H94.2794V123.904C92.8167 123.28 89.0646 121.702 84.3798 120.135C81.5498 119.182 78.3701 118.24 75.1585 117.495C73.6323 117.145 72.106 116.838 70.5903 116.597C60.4893 115.008 56.08 116.772 55.1579 117.221C55.0307 117.287 54.9671 117.32 54.9671 117.32C55.0307 117.309 55.0943 117.309 55.1579 117.309C55.6031 117.265 56.0906 117.243 56.6312 117.243C60.9238 117.298 68.1419 118.897 75.1691 120.782C78.3806 121.636 81.5604 122.556 84.3904 123.4C88.895 124.748 92.5411 125.931 94.1204 126.457L93.9826 128.439L92.7001 146.943L92.0536 156.222C88.5453 153.505 82.2387 148.685 75.1797 143.667C68.6082 138.989 61.3902 134.158 55.1791 130.663C53.7164 129.842 52.3068 129.097 50.9713 128.439C49.7206 127.826 48.5335 127.3 47.4417 126.873C47.1556 126.763 46.88 126.654 46.6044 126.555C43.6261 125.492 40.8809 124.901 38.3901 124.616L47.4417 120.65L54.9883 117.342C54.9883 117.342 51.8086 117.879 47.4417 118.766C38.4219 120.606 24.3144 123.992 22.5549 127.443L55.1791 143.492L74.4802 152.99L94.9684 163.069L115.456 152.99L133.634 144.051L167.392 127.443C165.58 123.893 150.995 120.453 142.007 118.634Z" fill="#A4ACB6"/>
<path d="M94.7142 40.8302C94.7142 40.8302 139.135 47.1952 149.056 59.476C149.056 59.476 150.826 39.4608 130.158 27.0485C105.006 11.9412 94.7248 -3.05176e-05 94.7248 -3.05176e-05C94.7248 -3.05176e-05 84.433 11.9302 59.2918 27.0485C38.6235 39.4717 40.3936 59.476 40.3936 59.476C49.954 47.6224 94.7142 40.8302 94.7142 40.8302Z" fill="#A4ACB6"/>
<path d="M137.365 109.651C138.361 109.826 139.994 110.122 142.007 110.517V66.2683C142.007 56.562 94.714 48.6852 94.714 48.6852C94.714 48.6852 47.4207 56.562 47.4207 66.2683V110.604C49.6571 110.166 51.4695 109.826 52.5401 109.64C53.2396 109.366 54.1087 109.081 55.158 108.819V77.366C55.158 77.3551 55.158 77.3332 55.158 77.3222C55.1474 77.3332 55.1262 77.3551 55.1156 77.366C55.1156 77.366 54.787 73.0606 58.6027 70.3875C63.2452 67.1338 65.1531 64.5593 65.1531 64.5593C65.1531 64.5593 67.0503 67.1338 71.7033 70.3875C75.519 73.0606 75.1904 77.366 75.1904 77.366C75.1798 77.3551 75.1587 77.3332 75.1481 77.3222C75.1481 77.3332 75.1481 77.3551 75.1481 77.366V109.312C78.3066 109.969 81.4546 110.823 84.3693 111.733V71.3297C84.3693 71.3187 84.3693 71.2968 84.3693 71.2858C84.3587 71.2968 84.3375 71.3187 84.3269 71.3297C84.3269 71.3297 83.9984 67.0242 87.8141 64.3512C92.4565 61.0975 94.3643 58.523 94.3643 58.523C94.3643 58.523 96.2616 61.0975 100.915 64.3512C104.73 67.0242 104.402 71.3297 104.402 71.3297C104.391 71.3187 104.37 71.2968 104.359 71.2858C104.359 71.2968 104.359 71.3187 104.359 71.3297V112.094C107.242 111.163 110.39 110.265 113.581 109.563V77.366C113.581 77.3551 113.581 77.3332 113.581 77.3222C113.57 77.3332 113.549 77.3551 113.538 77.366C113.538 77.366 113.21 73.0606 117.025 70.3875C121.668 67.1338 123.576 64.5593 123.576 64.5593C123.576 64.5593 125.473 67.1338 130.126 70.3875C133.942 73.0606 133.613 77.366 133.613 77.366C133.602 77.3551 133.581 77.3332 133.571 77.3222C133.571 77.3332 133.571 77.3551 133.571 77.366V108.567C135.182 108.884 136.432 109.279 137.365 109.651Z" fill="#A4ACB6"/>
<path d="M164.382 71.987C164.382 71.987 173.773 73.3345 175.872 75.9309C175.872 75.9309 176.243 70.015 171.876 67.3967C166.555 64.1978 164.382 61.6781 164.382 61.6781C164.382 61.6781 162.209 64.1978 156.888 67.3967C152.522 70.026 152.893 75.9309 152.893 75.9309C154.917 73.4221 164.382 71.987 164.382 71.987Z" fill="#A4ACB6"/>
<path d="M154.387 82.4195V113.5C162.909 115.658 168.95 117.849 172.48 121.201H174.377V82.4195C174.377 80.3708 164.382 78.7056 164.382 78.7056C164.382 78.7056 154.387 80.3708 154.387 82.4195Z" fill="#A4ACB6"/>
<path d="M25.5227 71.987C25.5227 71.987 34.9877 73.4221 37.0122 75.9309C37.0122 75.9309 37.3831 70.015 33.0163 67.3967C27.6955 64.1978 25.5227 61.6781 25.5227 61.6781C25.5227 61.6781 23.3499 64.1978 18.0291 67.3967C13.6622 70.026 14.0332 75.9309 14.0332 75.9309C16.1318 73.3345 25.5227 71.987 25.5227 71.987Z" fill="#A4ACB6"/>
<path d="M15.5276 82.1973V120.979H17.4248C20.9544 117.627 27.0065 115.436 35.5176 113.277V82.1973C35.5176 80.1487 25.5226 78.4835 25.5226 78.4835C25.5226 78.4835 15.5276 80.1487 15.5276 82.1973Z" fill="#A4ACB6"/>
<path d="M134.524 154.097L94.9578 171.264L55.4018 154.097L0 130.05C1.2295 138.902 7.21803 146.275 15.443 149.046L94.9684 175.941L174.494 149.046C182.719 146.264 188.707 138.902 189.937 130.05L134.524 154.097Z" fill="#A4ACB6"/>
</svg>
