<svg width="30" height="30" viewBox="0 0 30 30" fill="none" xmlns="http://www.w3.org/2000/svg">
<path d="M5.5 9.50079C5.5 7.29165 7.29086 5.50079 9.5 5.50079C11.7091 5.50079 13.5 7.29165 13.5 9.50079C13.5 11.7099 11.7091 13.5008 9.5 13.5008C7.29086 13.5008 5.5 11.7099 5.5 9.50079Z" stroke="#A4ACB6" stroke-width="1.5"/>
<path d="M16.5 20.5008C16.5 18.2917 18.2909 16.5008 20.5 16.5008C22.7091 16.5008 24.5 18.2917 24.5 20.5008C24.5 22.7099 22.7091 24.5008 20.5 24.5008C18.2909 24.5008 16.5 22.7099 16.5 20.5008Z" stroke="#A4ACB6" stroke-width="1.5"/>
<path d="M24.5 9.50079C24.5 7.61518 24.5 6.67237 23.9142 6.08658C23.3284 5.50079 22.3856 5.50079 20.5 5.50079C18.6144 5.50079 17.6716 5.50079 17.0858 6.08658C16.5 6.67237 16.5 7.61518 16.5 9.50079C16.5 11.3864 16.5 12.3292 17.0858 12.915C17.6716 13.5008 18.6144 13.5008 20.5 13.5008C22.3856 13.5008 23.3284 13.5008 23.9142 12.915C24.5 12.3292 24.5 11.3864 24.5 9.50079Z" stroke="#A4ACB6" stroke-width="1.5"/>
<path d="M13.5 20.5008C13.5 18.6152 13.5 17.6724 12.9142 17.0866C12.3284 16.5008 11.3856 16.5008 9.5 16.5008C7.61438 16.5008 6.67157 16.5008 6.08579 17.0866C5.5 17.6724 5.5 18.6152 5.5 20.5008C5.5 22.3864 5.5 23.3292 6.08579 23.915C6.67157 24.5008 7.61438 24.5008 9.5 24.5008C11.3856 24.5008 12.3284 24.5008 12.9142 23.915C13.5 23.3292 13.5 22.3864 13.5 20.5008Z" stroke="#A4ACB6" stroke-width="1.5"/>
</svg>
